TITLE: Many Basic Edits
FCM: NON-DROP FRAME

001  AX       V     C        19:05:12:03 19:05:51:11 01:00:00:00 01:00:39:08
* FROM CLIP NAME: 001_07_A

002  A008C024 V     C        20:06:25:20 20:06:28:05 01:00:39:08 01:00:41:17
* FROM CLIP NAME: 001C_04_A

003  A008C020 V     C        19:48:51:04 19:48:52:12 01:00:41:17 01:00:43:01
* FROM CLIP NAME: 001B_05_A

004  AX       V     C        20:08:02:03 20:08:04:08 01:00:43:01 01:00:45:06
* FROM CLIP NAME: 001C_05_A

005  A008C020 V     C        19:48:53:11 19:48:56:12 01:00:45:06 01:00:48:07
* FROM CLIP NAME: 001B_05_A

006  AX       V     C        19:30:34:02 19:30:37:21 01:00:48:07 01:00:52:02
* FROM CLIP NAME: 001A_03_A

007  A008C020 V     C        19:49:03:09 19:49:08:21 01:00:52:02 01:00:57:14
* FROM CLIP NAME: 001B_05_A

008  A008C024 V     C        20:06:59:00 20:07:04:09 01:00:57:14 01:01:02:23
* FROM CLIP NAME: 001C_04_A

009  A008C017 V     C        19:43:21:00 19:43:24:11 01:01:02:23 01:01:06:10
* FROM CLIP NAME: 001B_02_A

010  AX       V     C        19:30:51:12 19:30:54:03 01:01:06:10 01:01:09:01
* FROM CLIP NAME: 001A_03_A

011  AX       V     C        19:18:36:14 19:18:39:09 01:01:09:01 01:01:11:20
* FROM CLIP NAME: 001_11_A

012  AX       V     C        23:25:09:03 23:25:24:08 01:01:11:20 01:01:27:01
* FROM CLIP NAME: 002C_04_A

013  AX       V     C        23:54:36:23 23:54:40:04 01:01:27:01 01:01:30:06
* FROM CLIP NAME: 002D_04_A

014  AX       V     C        22:28:32:14 22:28:35:06 01:01:30:06 01:01:32:22
* FROM CLIP NAME: 002A_05_A

015  AX       V     C        23:21:57:10 23:22:00:14 01:01:32:22 01:01:36:02
* FROM CLIP NAME: 002C_03_A

016  AX       V     C        22:28:38:00 22:28:39:14 01:01:36:02 01:01:37:16
* FROM CLIP NAME: 002A_05_A

017  AX       V     C        23:22:13:00 23:22:14:20 01:01:37:16 01:01:39:12
* FROM CLIP NAME: 002C_03_A

018  AX       V     C        22:28:39:21 22:28:41:02 01:01:39:12 01:01:40:17
* FROM CLIP NAME: 002A_05_A

019  AX       V     C        22:42:05:19 22:42:07:15 01:01:40:17 01:01:42:13
* FROM CLIP NAME: 002B_03_A

020  AX       V     C        22:28:42:18 22:28:45:13 01:01:42:13 01:01:45:08
* FROM CLIP NAME: 002A_05_A

021  AX       V     C        22:46:59:11 22:47:00:21 01:01:45:08 01:01:46:18
* FROM CLIP NAME: 002B_05_A

022  AX       V     C        23:16:54:06 23:16:55:09 01:01:46:18 01:01:47:21
* FROM CLIP NAME: 002C_02_A

023  AX       V     C        23:16:55:15 23:16:56:17 01:01:47:21 01:01:48:23
* FROM CLIP NAME: 002C_02_A

024  AX       V     C        22:47:02:15 22:47:05:06 01:01:48:23 01:01:51:14
* FROM CLIP NAME: 002B_05_A

025  AX       V     C        23:22:27:06 23:22:29:04 01:01:51:14 01:01:53:12
* FROM CLIP NAME: 002C_03_A

026  AX       V     C        23:51:53:09 23:51:56:09 01:01:53:12 01:01:56:12
* FROM CLIP NAME: 002D_03_A

027  AX       V     C        19:22:57:06 19:23:16:10 01:01:56:12 01:02:15:16
* FROM CLIP NAME: 003_03_A

028  AX       V     C        20:27:32:23 20:27:34:15 01:02:15:16 01:02:17:08
* FROM CLIP NAME: 003C_03_A

029  AX       V     C        19:23:18:08 19:23:25:17 01:02:17:08 01:02:24:17
* FROM CLIP NAME: 003_03_A

030  AX       V     C        20:16:00:05 20:16:03:15 01:02:24:17 01:02:28:03
* FROM CLIP NAME: 003B_02_A

031  A005C035 V     C        20:39:49:03 20:39:52:10 01:02:28:03 01:02:31:10
* FROM CLIP NAME: 003D_03_A

032  AX       V     C        20:28:42:10 20:28:47:19 01:02:31:10 01:02:36:19
* FROM CLIP NAME: 003C_03_A

033  AX       V     C        19:58:38:04 19:58:41:00 01:02:36:19 01:02:39:15
* FROM CLIP NAME: 003A_03_A

034  AX       V     C        20:28:49:02 20:28:52:01 01:02:39:15 01:02:42:14
* FROM CLIP NAME: 003C_03_A

035  AX       V     C        19:57:44:12 19:57:48:02 01:02:42:14 01:02:46:04
* FROM CLIP NAME: 003A_02_A

036  AX       V     C        20:17:47:03 20:17:48:15 01:02:46:04 01:02:47:16
* FROM CLIP NAME: 003B_03_A

037  AX       V     C        19:59:48:04 19:59:50:07 01:02:47:16 01:02:49:19
* FROM CLIP NAME: 003A_04_A

038  AX       V     C        19:23:45:16 19:23:46:21 01:02:49:19 01:02:51:00
* FROM CLIP NAME: 003_03_A

039  AX       V     C        20:26:03:10 20:26:04:15 01:02:51:00 01:02:52:05
* FROM CLIP NAME: 003C_01_A

040  AX       V     C        20:17:51:06 20:17:52:22 01:02:52:05 01:02:53:21
* FROM CLIP NAME: 003B_03_A

041  AX       V     C        20:28:58:23 20:28:59:23 01:02:53:21 01:02:54:21
* FROM CLIP NAME: 003C_03_A

042  AX       V     C        20:16:23:05 20:16:25:13 01:02:54:21 01:02:57:05
* FROM CLIP NAME: 003B_02_A

043  AX       V     C        19:59:59:00 20:00:00:22 01:02:57:05 01:02:59:03
* FROM CLIP NAME: 003A_04_A

044  AX       V     C        20:24:00:07 20:24:02:18 01:02:59:03 01:03:01:14
* FROM CLIP NAME: 003C_01_A

045  AX       V     C        20:16:29:03 20:16:31:04 01:03:01:14 01:03:03:15
* FROM CLIP NAME: 003B_02_A

046  AX       V     C        20:28:04:08 20:28:05:18 01:03:03:15 01:03:05:01
* FROM CLIP NAME: 003C_03_A

047  AX       V     C        20:16:32:12 20:16:34:08 01:03:05:01 01:03:06:21
* FROM CLIP NAME: 003B_02_A

048  AX       V     C        20:29:11:16 20:29:13:07 01:03:06:21 01:03:08:12
* FROM CLIP NAME: 003C_03_A

049  AX       V     C        20:16:35:23 20:16:37:21 01:03:08:12 01:03:10:10
* FROM CLIP NAME: 003B_02_A

050  AX       V     C        19:58:09:03 19:58:10:19 01:03:10:10 01:03:12:02
* FROM CLIP NAME: 003A_02_A

051  AX       V     C        19:58:10:20 19:58:11:21 01:03:12:02 01:03:13:03
* FROM CLIP NAME: 003A_02_A

052  A005C035 V     C        20:39:58:19 20:40:02:19 01:03:13:03 01:03:17:03
* FROM CLIP NAME: 003D_03_A

053  A005C015 V     C        17:17:57:19 17:17:57:20 01:03:17:03 01:03:17:04
* FROM CLIP NAME: B006_06_A

054  AX       V     C        16:49:07:01 16:49:07:22 01:03:17:04 01:03:18:01
* FROM CLIP NAME: MNT_012_01_A

055  AX       V     C        16:52:59:20 16:53:02:02 01:03:18:01 01:03:20:07
* FROM CLIP NAME: MNT_014_01_A

056  AX       V     C        16:36:57:17 16:36:59:03 01:03:20:07 01:03:21:17
* FROM CLIP NAME: MNT_007_01_A

057  AX       V     C        16:46:25:11 16:46:26:20 01:03:21:17 01:03:23:02
* FROM CLIP NAME: MNT_011_01_A

058  AX       V     C        16:34:49:12 16:34:50:20 01:03:23:02 01:03:24:10
* FROM CLIP NAME: MNT_005_03_A

059  AX       V     C        16:29:48:21 16:29:53:02 01:03:24:10 01:03:28:15
* FROM CLIP NAME: MNT_004_01_A

060  AX       V     C        12:37:54:13 12:38:03:18 01:03:28:15 01:03:37:20
* FROM CLIP NAME: 006M_04_A

061  AX       V     C        09:02:19:07 09:02:24:07 01:03:37:20 01:03:42:20
* FROM CLIP NAME: 006_04_A

062  AX       V     C        14:20:10:15 14:20:13:01 01:03:42:20 01:03:45:06
* FROM CLIP NAME: 006N_02_A

063  AX       V     C        16:02:15:14 16:02:17:14 01:03:45:06 01:03:47:06
* FROM CLIP NAME: 006V_01_A

064  AX       V     C        11:02:36:20 11:02:38:19 01:03:47:06 01:03:49:05
* FROM CLIP NAME: 006H_02_A

065  AX       V     C        09:55:12:05 09:55:14:01 01:03:49:05 01:03:51:01
* FROM CLIP NAME: 006D_02_A

066  AX       V     C        09:02:24:16 09:02:27:02 01:03:51:01 01:03:53:11
* FROM CLIP NAME: 006_04_A

067  AX       V     C        14:23:55:05 14:23:58:02 01:03:53:11 01:03:56:08
* FROM CLIP NAME: 006N_03_A

068  AX       V     C        15:04:37:10 15:04:38:21 01:03:56:08 01:03:57:19
* FROM CLIP NAME: 006R_01_A

069  AX       V     C        09:34:32:11 09:34:35:21 01:03:57:19 01:04:01:05
* FROM CLIP NAME: 006C_02_A

070  AX       V     C        14:30:20:01 14:30:22:06 01:04:01:05 01:04:03:10
* FROM CLIP NAME: 006P_01_A

071  AX       V     C        10:47:26:23 10:47:28:16 01:04:03:10 01:04:05:03
* FROM CLIP NAME: 006G_02_A

072  AX       V     C        09:34:41:00 09:34:42:13 01:04:05:03 01:04:06:16
* FROM CLIP NAME: 006C_02_A

073  AX       V     C        14:52:41:09 14:52:43:00 01:04:06:16 01:04:08:07
* FROM CLIP NAME: 006Q_03_A

074  AX       V     C        10:47:33:11 10:47:35:20 01:04:08:07 01:04:10:16
* FROM CLIP NAME: 006G_02_A

075  AX       V     C        15:53:49:12 15:53:52:15 01:04:10:16 01:04:13:19
* FROM CLIP NAME: 006U_02_A

076  AX       V     C        09:50:00:01 09:50:02:01 01:04:13:19 01:04:15:19
* FROM CLIP NAME: 006D_01_A

077  AX       V     C        10:46:48:09 10:46:49:22 01:04:15:19 01:04:17:08
* FROM CLIP NAME: 006G_02_A

078  AX       V     C        15:12:53:17 15:12:55:12 01:04:17:08 01:04:19:03
* FROM CLIP NAME: 006R_02_A

079  AX       V     C        11:03:43:05 11:03:45:09 01:04:19:03 01:04:21:07
* FROM CLIP NAME: 006H_02_A

080  AX       V     C        16:02:39:12 16:02:41:12 01:04:21:07 01:04:23:07
* FROM CLIP NAME: 006V_01_A

081  AX       V     C        11:03:48:09 11:03:50:12 01:04:23:07 01:04:25:10
* FROM CLIP NAME: 006H_02_A

082  AX       V     C        11:26:57:10 11:26:59:03 01:04:25:10 01:04:27:03
* FROM CLIP NAME: 006K_01_A

083  AX       V     C        15:46:54:18 15:46:56:00 01:04:27:03 01:04:28:09
* FROM CLIP NAME: 006U_01_A

084  AX       V     C        08:56:42:22 08:56:44:07 01:04:28:09 01:04:29:18
* FROM CLIP NAME: 006_02_A

085  AX       V     C        15:54:04:04 15:54:05:15 01:04:29:18 01:04:31:05
* FROM CLIP NAME: 006U_02_A

086  AX       V     C        11:27:02:08 11:27:03:23 01:04:31:05 01:04:32:20
* FROM CLIP NAME: 006K_01_A

087  AX       V     C        16:02:56:06 16:02:58:20 01:04:32:20 01:04:35:10
* FROM CLIP NAME: 006V_01_A

088  AX       V     C        11:27:05:16 11:27:07:06 01:04:35:10 01:04:37:00
* FROM CLIP NAME: 006K_01_A

089  AX       V     C        15:54:09:23 15:54:12:02 01:04:37:00 01:04:39:03
* FROM CLIP NAME: 006U_02_A

090  AX       V     C        16:11:03:20 16:11:04:23 01:04:39:03 01:04:40:06
* FROM CLIP NAME: 006W_01_A

091  AX       V     C        11:04:01:15 11:04:04:15 01:04:40:06 01:04:43:06
* FROM CLIP NAME: 006H_02_A

092  AX       V     C        15:54:35:17 15:54:38:05 01:04:43:06 01:04:45:18
* FROM CLIP NAME: 006U_02_A

093  AX       V     C        10:48:29:01 10:48:30:18 01:04:45:18 01:04:47:11
* FROM CLIP NAME: 006G_02_A

094  AX       V     C        15:54:49:09 15:54:51:06 01:04:47:11 01:04:49:08
* FROM CLIP NAME: 006U_02_A

095  AX       V     C        11:11:49:19 11:11:51:10 01:04:49:08 01:04:50:23
* FROM CLIP NAME: 006J_01_A

096  AX       V     C        10:41:05:06 10:41:06:21 01:04:50:23 01:04:52:14
* FROM CLIP NAME: 006G_01_A

097  AX       V     C        11:55:06:13 11:55:08:05 01:04:52:14 01:04:54:06
* FROM CLIP NAME: 006L_02_A

098  AX       V     C        14:54:11:01 14:54:16:03 01:04:54:06 01:04:59:08
* FROM CLIP NAME: 006Q_03_A

099  AX       V     C        09:35:23:01 09:35:25:18 01:04:59:08 01:05:02:01
* FROM CLIP NAME: 006C_02_A

100  AX       V     C        16:03:32:17 16:03:34:01 01:05:02:01 01:05:03:09
* FROM CLIP NAME: 006V_01_A

101  AX       V     C        14:54:18:11 14:54:22:17 01:05:03:09 01:05:07:15
* FROM CLIP NAME: 006Q_03_A

102  AX       V     C        15:24:29:01 15:24:30:11 01:05:07:15 01:05:09:01
* FROM CLIP NAME: 006S_01_A

103  AX       V     C        11:27:35:23 11:27:38:13 01:05:09:01 01:05:11:15
* FROM CLIP NAME: 006K_01_A

104  AX       V     C        09:35:33:19 09:35:38:19 01:05:11:15 01:05:16:15
* FROM CLIP NAME: 006C_02_A

105  AX       V     C        15:55:32:19 15:55:35:00 01:05:16:15 01:05:18:20
* FROM CLIP NAME: 006U_02_A

106  AX       V     C        10:49:16:04 10:49:17:22 01:05:18:20 01:05:20:14
* FROM CLIP NAME: 006G_02_A

107  AX       V     C        15:55:35:20 15:55:36:17 01:05:20:14 01:05:21:11
* FROM CLIP NAME: 006U_02_A

108  AX       V     C        16:13:35:04 16:13:36:16 01:05:21:11 01:05:22:23
* FROM CLIP NAME: 006W_01_A

109  AX       V     C        10:49:18:17 10:49:19:23 01:05:22:23 01:05:24:05
* FROM CLIP NAME: 006G_02_A

110  AX       V     C        10:16:26:16 10:16:27:20 01:05:24:05 01:05:25:09
* FROM CLIP NAME: 006F_01_A

111  AX       V     C        09:35:40:17 09:35:41:15 01:05:25:09 01:05:26:07
* FROM CLIP NAME: 006C_02_A

112  AX       V     C        16:03:42:04 16:03:43:00 01:05:26:07 01:05:27:03
* FROM CLIP NAME: 006V_01_A

113  AX       V     C        11:55:32:18 11:55:36:00 01:05:27:03 01:05:30:09
* FROM CLIP NAME: 006L_02_A

114  AX       V     C        15:06:33:06 15:06:34:15 01:05:30:09 01:05:31:18
* FROM CLIP NAME: 006R_01_A

115  AX       V     C        09:56:32:20 09:56:34:23 01:05:31:18 01:05:33:21
* FROM CLIP NAME: 006D_02_A

116  AX       V     C        08:56:53:14 08:56:55:08 01:05:33:21 01:05:35:15
* FROM CLIP NAME: 006_02_A

117  AX       V     C        14:30:55:22 14:30:58:05 01:05:35:15 01:05:37:22
* FROM CLIP NAME: 006P_01_A

118  AX       V     C        14:54:55:19 14:54:58:10 01:05:37:22 01:05:40:13
* FROM CLIP NAME: 006Q_03_A

119  AX       V     C        09:36:01:18 09:36:04:04 01:05:40:13 01:05:42:23
* FROM CLIP NAME: 006C_02_A

120  AX       V     C        08:57:48:06 08:57:50:05 01:05:42:23 01:05:44:22
* FROM CLIP NAME: 006_02_A

121  AX       V     C        09:56:49:07 09:56:55:04 01:05:44:22 01:05:50:19
* FROM CLIP NAME: 006D_02_A

122  AX       V     C        15:48:33:22 15:48:35:09 01:05:50:19 01:05:52:06
* FROM CLIP NAME: 006U_01_A

123  AX       V     C        11:29:00:16 11:29:03:18 01:05:52:06 01:05:55:08
* FROM CLIP NAME: 006K_01_A

124  AX       V     C        14:55:16:02 14:55:18:02 01:05:55:08 01:05:57:08
* FROM CLIP NAME: 006Q_03_A

125  AX       V     C        10:49:44:15 10:49:46:00 01:05:57:08 01:05:58:17
* FROM CLIP NAME: 006G_02_A

126  AX       V     C        10:49:46:00 10:49:46:06 01:05:58:17 01:05:58:23
* FROM CLIP NAME: 006G_02_A

127  AX       V     C        10:49:46:12 10:49:47:23 01:05:58:23 01:06:00:10
* FROM CLIP NAME: 006G_02_A

128  AX       V     C        14:55:19:17 14:55:21:03 01:06:00:10 01:06:01:20
* FROM CLIP NAME: 006Q_03_A

129  AX       V     C        16:04:21:21 16:04:23:14 01:06:01:20 01:06:03:13
* FROM CLIP NAME: 006V_01_A

130  AX       V     C        11:29:13:21 11:29:14:23 01:06:03:13 01:06:04:15
* FROM CLIP NAME: 006K_01_A

131  AX       V     C        09:36:42:11 09:36:44:15 01:06:04:15 01:06:06:19
* FROM CLIP NAME: 006C_02_A

132  AX       V     C        11:56:29:01 11:56:31:02 01:06:06:19 01:06:08:20
* FROM CLIP NAME: 006L_02_A

133  AX       V     C        14:56:37:00 14:56:38:17 01:06:08:20 01:06:10:13
* FROM CLIP NAME: 006Q_03_A

134  AX       V     C        10:42:35:19 10:42:36:15 01:06:10:13 01:06:11:09
* FROM CLIP NAME: 006G_01_A

135  AX       V     C        14:56:39:23 14:56:40:21 01:06:11:09 01:06:12:07
* FROM CLIP NAME: 006Q_03_A

136  AX       V     C        09:57:15:19 09:57:17:03 01:06:12:07 01:06:13:15
* FROM CLIP NAME: 006D_02_A

137  AX       V     C        11:56:36:17 11:56:39:23 01:06:13:15 01:06:16:21
* FROM CLIP NAME: 006L_02_A

138  AX       V     C        16:04:27:19 16:04:28:14 01:06:16:21 01:06:17:16
* FROM CLIP NAME: 006V_01_A

139  AX       V     C        16:04:28:14 16:04:29:01 01:06:17:16 01:06:18:03
* FROM CLIP NAME: 006V_01_A

140  AX       V     C        16:04:29:11 16:04:29:22 01:06:18:03 01:06:18:14
* FROM CLIP NAME: 006V_01_A

141  AX       V     C        11:57:25:20 11:57:27:01 01:06:18:14 01:06:19:19
* FROM CLIP NAME: 006L_02_A

142  AX       V     C        15:15:43:00 15:15:44:22 01:06:19:19 01:06:21:17
* FROM CLIP NAME: 006R_02_A

143  AX       V     C        14:16:41:10 14:16:44:15 01:06:21:17 01:06:24:22
* FROM CLIP NAME: 006N_01_A

144  AX       V     C        14:56:50:08 14:56:51:22 01:06:24:22 01:06:26:12
* FROM CLIP NAME: 006Q_03_A

145  AX       V     C        10:50:12:19 10:50:13:21 01:06:26:12 01:06:27:14
* FROM CLIP NAME: 006G_02_A

146  AX       V     C        15:17:20:21 15:17:26:11 01:06:27:14 01:06:33:04
* FROM CLIP NAME: 006R_02_A

147  AX       V     C        16:04:56:15 16:04:58:06 01:06:33:04 01:06:34:19
* FROM CLIP NAME: 006V_01_A

148  AX       V     C        11:14:47:09 11:14:48:11 01:06:34:19 01:06:35:21
* FROM CLIP NAME: 006J_01_A

149  AX       V     C        11:06:04:08 11:06:06:11 01:06:35:21 01:06:38:00
* FROM CLIP NAME: 006H_02_A

150  AX       V     C        15:07:34:17 15:07:36:00 01:06:38:00 01:06:39:07
* FROM CLIP NAME: 006R_01_A

151  AX       V     C        10:51:08:10 10:51:09:12 01:06:39:07 01:06:40:09
* FROM CLIP NAME: 006G_02_A

152  AX       V     C        14:57:04:18 14:57:06:05 01:06:40:09 01:06:41:20
* FROM CLIP NAME: 006Q_03_A

153  AX       V     C        15:56:45:11 15:56:47:03 01:06:41:20 01:06:43:12
* FROM CLIP NAME: 006U_02_A

154  AX       V     C        11:57:42:11 11:57:46:10 01:06:43:12 01:06:47:11
* FROM CLIP NAME: 006L_02_A

155  AX       V     C        09:31:16:02 09:31:17:15 01:06:47:11 01:06:49:00
* FROM CLIP NAME: 006C_01_A

156  AX       V     C        10:52:28:02 10:52:35:06 01:06:49:00 01:06:56:04
* FROM CLIP NAME: 006G_02_A

157  AX       V     C        11:58:00:10 11:58:02:16 01:06:56:04 01:06:58:10
* FROM CLIP NAME: 006L_02_A

158  AX       V     C        09:38:17:06 09:38:19:21 01:06:58:10 01:07:01:01
* FROM CLIP NAME: 006C_02_A

159  AX       V     C        11:44:52:20 11:44:54:05 01:07:01:01 01:07:02:10
* FROM CLIP NAME: X006_01_A_FuelGaugeInsert

160  AX       V     C        09:52:23:05 09:52:24:14 01:07:02:10 01:07:03:19
* FROM CLIP NAME: 006D_01_A

161  AX       V     C        15:17:59:06 15:18:02:04 01:07:03:19 01:07:06:17
* FROM CLIP NAME: 006R_02_A

162  AX       V     C        09:58:22:15 09:58:23:19 01:07:06:17 01:07:07:21
* FROM CLIP NAME: 006D_02_A

163  AX       V     C        10:52:43:03 10:52:44:04 01:07:07:21 01:07:08:22
* FROM CLIP NAME: 006G_02_A

164  AX       V     C        16:05:32:07 16:05:33:09 01:07:08:22 01:07:10:00
* FROM CLIP NAME: 006V_01_A

165  AX       V     C        14:57:35:12 14:57:37:13 01:07:10:00 01:07:12:01
* FROM CLIP NAME: 006Q_03_A

166  AX       V     C        09:31:52:15 09:31:54:23 01:07:12:01 01:07:14:09
* FROM CLIP NAME: 006C_01_A

167  AX       V     C        14:57:38:19 14:57:40:17 01:07:14:09 01:07:16:07
* FROM CLIP NAME: 006Q_03_A

168  AX       V     C        09:31:56:00 09:31:58:23 01:07:16:07 01:07:19:06
* FROM CLIP NAME: 006C_01_A

169  AX       V     C        15:10:05:10 15:10:07:10 01:07:19:06 01:07:21:06
* FROM CLIP NAME: 006R_01_A

170  AX       V     C        09:58:44:18 09:58:47:21 01:07:21:06 01:07:24:09
* FROM CLIP NAME: 006D_02_A

171  AX       V     C        14:46:36:14 14:46:37:15 01:07:24:09 01:07:25:10
* FROM CLIP NAME: 006Q_01_A

172  AX       V     C        11:59:07:18 11:59:09:07 01:07:25:10 01:07:26:23
* FROM CLIP NAME: 006L_02_A

173  AX       V     C        14:58:27:04 14:58:28:04 01:07:26:23 01:07:27:23
* FROM CLIP NAME: 006Q_03_A

174  AX       V     C        09:32:07:10 09:32:08:14 01:07:27:23 01:07:29:03
* FROM CLIP NAME: 006C_01_A

175  AX       V     C        10:43:39:12 10:43:40:18 01:07:29:03 01:07:30:09
* FROM CLIP NAME: 006G_01_A

176  AX       V     C        15:50:49:20 15:50:50:11 01:07:30:09 01:07:31:00
* FROM CLIP NAME: 006U_01_A

177  AX       V     C        15:18:29:13 15:18:32:09 01:07:31:00 01:07:33:20
* FROM CLIP NAME: 006R_02_A

178  AX       V     C        11:59:14:09 11:59:16:21 01:07:33:20 01:07:36:08
* FROM CLIP NAME: 006L_02_A

179  AX       V     C        14:58:36:15 14:58:39:02 01:07:36:08 01:07:38:19
* FROM CLIP NAME: 006Q_03_A

180  AX       V     C        09:06:20:11 09:06:22:14 01:07:38:19 01:07:40:22
* FROM CLIP NAME: 006A_01_A

181  AX       V     C        15:10:32:09 15:10:39:10 01:07:40:22 01:07:47:23
* FROM CLIP NAME: 006R_01_A

182  AX       V     C        11:00:32:17 11:00:34:06 01:07:47:23 01:07:49:12
* FROM CLIP NAME: 006H_01_A

183  AX       V     C        09:59:03:04 09:59:04:17 01:07:49:12 01:07:51:01
* FROM CLIP NAME: 006D_02_A

184  AX       V     C        09:08:29:14 09:08:34:15 01:07:51:01 01:07:56:02
* FROM CLIP NAME: 006A_02_A

185  AX       V     C        15:18:49:22 15:18:51:18 01:07:56:02 01:07:57:22
* FROM CLIP NAME: 006R_02_A

186  AX       V     C        09:08:34:14 09:08:36:18 01:07:57:22 01:08:00:02
* FROM CLIP NAME: 006A_02_A

187  AX       V     C        16:06:05:12 16:06:06:15 01:08:00:02 01:08:01:05
* FROM CLIP NAME: 006V_01_A

188  AX       V     C        15:10:47:11 15:10:49:04 01:08:01:05 01:08:02:22
* FROM CLIP NAME: 006R_01_A

189  AX       V     C        09:53:06:00 09:53:07:13 01:08:02:22 01:08:04:11
* FROM CLIP NAME: 006D_01_A

190  AX       V     C        15:18:55:04 15:18:56:12 01:08:04:11 01:08:05:19
* FROM CLIP NAME: 006R_02_A

191  AX       V     C        11:00:29:18 11:00:30:22 01:08:05:19 01:08:06:23
* FROM CLIP NAME: 006H_01_A

192  AX       V     C        16:06:30:02 16:06:31:09 01:08:06:23 01:08:08:06
* FROM CLIP NAME: 006V_01_A

193  AX       V     C        09:59:25:02 09:59:32:01 01:08:08:06 01:08:15:05
* FROM CLIP NAME: 006D_02_A

194  AX       V     C        15:18:58:21 15:19:01:18 01:08:15:05 01:08:18:02
* FROM CLIP NAME: 006R_02_A

195  AX       V     C        10:05:18:11 10:05:27:02 01:08:18:02 01:08:26:17
* FROM CLIP NAME: 006E_01_A

196  AX       V     C        11:00:53:03 11:00:55:19 01:08:26:17 01:08:29:09
* FROM CLIP NAME: 006H_01_A

197  AX       V     C        16:06:35:14 16:06:37:06 01:08:29:09 01:08:31:01
* FROM CLIP NAME: 006V_01_A

198  AX       V     C        16:29:35:06 16:29:37:08 01:08:31:01 01:08:33:03
* FROM CLIP NAME: 006X_03_A

199  AX       V     C        15:40:18:03 15:40:20:09 01:08:33:03 01:08:35:09
* FROM CLIP NAME: 006T_03_A

200  AX       V     C        09:21:28:00 09:21:31:08 01:08:35:09 01:08:38:17
* FROM CLIP NAME: 006B_02_A

201  AX       V     C        16:29:39:03 16:29:40:02 01:08:38:17 01:08:39:16
* FROM CLIP NAME: 006X_03_A

202  AX       V     C        13:09:21:16 13:09:24:03 01:08:39:16 01:08:42:03
* FROM CLIP NAME: 006M_09_A

203  AX       V     C        09:21:32:12 09:21:34:14 01:08:42:03 01:08:44:05
* FROM CLIP NAME: 006B_02_A

204  AX       V     C        15:36:01:02 15:36:05:04 01:08:44:05 01:08:48:07
* FROM CLIP NAME: 006T_01_A

205  AX       V     C        13:25:13:11 13:25:15:14 01:08:48:07 01:08:50:10
* FROM CLIP NAME: 006M_14_A

206  AX       V     C        14:58:06:22 14:58:22:22 01:08:50:10 01:09:06:10
* FROM CLIP NAME: 007_07_A

207  AX       V     C        16:14:09:13 16:14:18:19 01:09:06:10 01:09:15:16
* FROM CLIP NAME: 007A_02_A

208  AX       V     C        14:58:32:04 14:58:52:15 01:09:15:16 01:09:36:03
* FROM CLIP NAME: 007_07_A

209  AX       V     C        16:03:37:20 16:03:42:14 01:09:36:03 01:09:40:21
* FROM CLIP NAME: 007A_01_A

210  AX       V     C        00:04:15:22 00:04:18:11 01:09:40:21 01:09:43:10
* FROM CLIP NAME: DJI_0051.MOV

211  AX       V     C        14:59:22:22 14:59:41:03 01:09:43:10 01:10:01:15
* FROM CLIP NAME: 007_07_A

212  AX       V     C        16:24:22:16 16:25:11:02 01:10:01:15 01:10:50:01
* FROM CLIP NAME: 007A_03PU_A

213  AX       V     C        15:00:36:14 15:01:29:19 01:10:50:01 01:11:43:06
* FROM CLIP NAME: 007_07_A

214  AX       V     C        11:27:59:08 11:28:12:13 01:11:43:06 01:11:56:11
* FROM CLIP NAME: 009_05_A

215  AX       V     C        14:19:32:08 14:21:10:21 01:11:56:11 01:13:35:00
* FROM CLIP NAME: MNT_001_01_A
